HIERARCHY
ROOT Hips
{
	OFFSET -0.132142257981 -21.6773503493 2.72441699205
	CHANNELS 6 Xposition Yposition Zposition Zrotation Yrotation Xrotation
	JOINT LeftHip
	{
		OFFSET 6.79628202689 -8.98805723294 -0.72256025306
		CHANNELS 3 Zrotation Yrotation Xrotation
		JOINT LeftKnee
		{
			OFFSET 3.25051746921 -36.7055409428 -0.549998784112
			CHANNELS 3 Zrotation Yrotation Xrotation
			JOINT LeftFoot
			{
				OFFSET -1.26110739445 -38.7990834176 -4.18684845697
				CHANNELS 3 Zrotation Yrotation Xrotation
				End LeftToe
				{
                                  OFFSET 2.4952685508 -5.47994673672 11.552574755
				}
			}
		}
	}
	JOINT RightHip
	{
		OFFSET -6.58220145943 -8.93696033102 -0.409788566719
		CHANNELS 3 Zrotation Yrotation Xrotation
		JOINT RightKnee
		{
			OFFSET -3.72585544607 -37.3767910816 -0.879337517811
			CHANNELS 3 Zrotation Yrotation Xrotation
			JOINT RightFoot
			{
				OFFSET 1.50305394162 -38.8717755586 -4.01156291197
				CHANNELS 3 Zrotation Yrotation Xrotation
				End RightToe
				{
                                        OFFSET -2.23171988655 -4.69949683944 11.9277872616
				}
			}
		}
	}
	JOINT Waist
	{
		OFFSET -0.246078047685 10.5295306018 -2.34308275449
		CHANNELS 3 Zrotation Yrotation Xrotation
		JOINT Spine
		{
			OFFSET 0.477982575756 13.021471085 0.0868958560507
			CHANNELS 3 Zrotation Yrotation Xrotation
                        JOINT Chest
                        {
                            OFFSET 0.162627253557 5.08627351626 2.56490525898
                            CHANNELS 3 Zrotation Yrotation Xrotation
                            JOINT Neck
                            {
                                OFFSET -0.259065814318 21.1179877915 -4.778337143
                                CHANNELS 3 Zrotation Yrotation Xrotation
                                End Head
                                {
                                        OFFSET -0.108042521031 26.3505678784 2.12168852216
                                }
                            }
                            JOINT LeftInnerShoulder
                            {
                                OFFSET 7.5807953746 11.9760394584 -3.69964864927
                                CHANNELS 3 Zrotation Yrotation Xrotation
                                JOINT LeftShoulder
                                {
                                        OFFSET 8.64169936521 2.91849231214 -0.763890051067
                                        CHANNELS 3 Zrotation Yrotation Xrotation
                                        JOINT LeftElbow
                                        {
                                                OFFSET 25.2406528861 -1.04707278777 -2.5638794465
                                                CHANNELS 3 Zrotation Yrotation Xrotation
                                                End LeftWrist
                                                {
                                                        OFFSET 23.8353810248 0.811924525055 -0.155291765314
                                                }
                                        }
                                }
                            }
                            JOINT RightInnerShoulder
                            {
                                OFFSET -7.84926654431 11.7462516395 -4.10743165833
                                CHANNELS 3 Zrotation Yrotation Xrotation
                                JOINT RightShoulder
                                {
                                        OFFSET -9.07470372474 3.12143182598 -0.882946558963
                                        CHANNELS 3 Zrotation Yrotation Xrotation
                                        JOINT RightElbow
                                        {
                                                OFFSET -24.6112365753 -1.22622944354 -1.88456897454
                                                CHANNELS 3 Zrotation Yrotation Xrotation
                                                End RightWrist
                                                {
                                                        OFFSET -24.603011204 0.836429499205 -0.541969517627
                                                }
                                        }
                                }
                            }
                        }
                }
            }
}
MOTION
Frames: 14
Frame Time: 0.0333333333333
0.00000 0.00000 0.00000 26.54048 66.25248 31.29063 8.79138 -13.95975 -23.15784 0.87016 -12.51645 34.28504 -4.40365 12.32354 1.18854 1.59037 -14.52484 19.15775 2.23269 -3.57707 6.62688 11.12295 -20.84622 -1.24035 -6.10951 11.98435 -0.42853 -4.25915 2.54016 -0.28785 -0.23323 6.00689 9.10150 -2.41278 2.46064 -3.09293 -2.20752 19.46713 -0.01491 -57.32225 -0.49632 18.99382 -29.57867 -68.71502 40.14598 1.51225 -0.22657 -2.63387 67.05928 16.58234 29.93841 2.96348 70.86030 14.96763
-3.96695 -1.04368 0.01872 20.36986 62.35538 23.22750 8.41006 -12.55751 -19.51051 0.93366 -15.22909 33.10216 -5.93589 11.78670 -0.07374 2.72989 -13.67591 20.64195 1.80136 0.54008 6.20358 11.03864 -19.75391 -5.10468 -4.52775 11.45161 2.10990 -5.45777 2.35500 0.50854 -0.80482 5.85521 8.27142 -2.65111 5.59211 -5.07085 -5.63343 15.51415 -0.36288 -57.09611 1.43662 13.18120 -8.67126 -49.39289 20.87757 3.96178 2.99285 -1.75657 64.62929 14.10118 26.79556 6.51100 53.51500 22.80107
-7.02990 1.17849 -0.00114 22.51721 63.39510 26.23299 10.30978 -10.44085 -16.89967 2.79419 -16.54708 24.97884 -7.20290 12.80857 3.17532 5.61688 -12.54492 18.40737 1.38260 0.94905 6.06303 10.62772 -22.28984 -1.78360 -5.97467 9.38800 3.51773 -6.64303 0.04676 1.23181 -1.18401 4.13362 8.60193 -3.61485 4.84402 -6.13813 -7.09378 13.28430 -0.34140 -54.02583 0.96568 10.97706 -3.03295 -36.03795 16.56724 5.59958 4.59982 -1.03946 59.85935 13.65549 22.20795 3.93047 29.44524 19.08923
-11.68666 2.34137 0.05472 13.88889 59.49469 19.51588 12.13829 -11.89909 -15.74820 1.23360 -21.72431 25.92338 -8.11904 13.26764 2.64941 4.97481 -11.35977 12.84109 2.63376 1.32350 13.19148 14.31331 -21.01384 2.69365 -6.36255 9.53631 3.98339 -7.17574 1.03087 0.98989 -1.45984 5.13762 9.56338 -5.85499 0.11332 -7.49125 -2.58465 15.80314 0.58891 -57.00073 4.37192 8.70789 3.56333 -35.12284 14.58513 1.65402 1.87729 -0.92933 59.05951 10.75093 13.05136 -4.11375 15.01004 8.91038
-18.74496 3.84280 0.01728 21.27040 65.49279 29.87725 12.68739 -10.75410 -22.84581 5.06336 -19.75149 19.96227 -6.99263 18.06623 7.10128 8.83903 -10.00865 3.36344 0.33071 -1.50926 18.58859 13.62869 -24.29825 2.84509 -8.18848 8.58572 7.37019 -6.75364 -0.82910 -2.10786 -0.68245 2.96857 11.75655 -9.60473 -4.95833 -7.33087 7.26956 23.18343 2.77416 -57.17964 4.56449 9.25147 -2.60831 -36.86276 25.29051 -7.96683 -10.59167 0.47945 64.53792 -0.76849 10.22751 -6.27317 19.20118 13.99681
-24.55181 8.38188 -0.02362 19.41061 64.75629 28.08574 12.52652 -10.73429 -24.67269 0.91039 -21.32023 24.34627 -9.84978 21.21431 3.07205 8.82628 -7.16323 -6.10906 0.58348 1.84198 28.00084 21.31256 -27.62984 -2.12245 -8.11852 7.53525 10.64480 -7.40752 0.98888 -2.01460 -1.29178 3.50713 13.77539 -10.39160 -7.60001 -8.26814 14.99250 30.02860 5.61670 -47.97220 12.22164 6.73176 -12.83397 -48.27078 31.46777 -17.71418 -19.92307 3.59775 54.38461 -12.58653 0.24371 -4.57534 26.99676 9.94632
-33.91244 9.17475 -0.07526 20.37968 68.98373 26.46440 10.62922 -11.19208 -31.33929 -4.03421 -16.98459 39.40614 -6.84240 23.48117 3.39548 11.06106 -3.81952 -14.02090 3.74917 3.94225 38.61270 20.64789 -30.10216 -4.62992 -5.83671 5.77614 18.27596 -7.79538 3.01798 -2.62280 -1.58783 3.04481 14.86096 -9.22369 -0.97089 -8.54407 12.81707 37.76633 3.72977 -31.76319 18.02033 -1.00714 8.99223 -62.89450 5.55491 -17.74766 -26.91543 4.24670 37.96122 -22.86517 -6.99858 -3.95220 23.80414 -2.68218
-45.01690 8.16374 -0.03645 26.65214 71.25645 32.26826 10.46084 -8.34580 -37.62145 -10.05535 -10.42364 55.45987 -5.27454 22.84799 -2.84979 10.72018 -3.65837 -25.40269 5.13447 0.45491 50.45514 20.91669 -30.31605 -9.62451 -4.86060 4.03343 24.59149 -8.59943 3.93129 -7.83783 -2.51311 2.41031 16.45785 -6.86425 0.02733 -4.03845 20.38223 45.29327 3.64661 -24.20703 15.72497 -14.76968 35.32214 -53.68140 -24.78889 -25.74176 -37.36913 3.05078 31.93220 -25.58637 -16.74189 -16.10581 19.13420 -16.00665
-51.95367 1.32594 0.00511 24.63520 74.44104 33.40916 12.79954 -4.24062 -44.14634 -8.92098 -6.06515 60.45700 -3.97954 25.09556 -5.75448 11.50363 -1.61044 -34.13463 6.33210 -1.83327 52.41971 18.11336 -30.05262 -8.14035 -5.21276 2.73921 28.51183 -8.24624 1.81678 -13.97730 -1.79217 0.89802 16.65442 -5.64520 0.18678 -1.69954 24.25725 46.79397 0.77836 -16.14775 16.32023 -21.09159 38.57490 -37.84578 -32.85554 -29.13424 -38.68423 -1.72980 16.51576 -18.72880 -22.69457 -15.63911 2.91996 -21.44178
-57.77229 -4.52990 0.05050 27.89921 75.39036 41.83524 14.61700 -4.05216 -50.45234 -8.15933 -1.47817 61.28533 -1.62672 24.80090 -2.59957 9.82830 0.43689 -45.74700 6.07442 -4.75658 58.72776 15.42860 -28.34065 -1.98617 -5.59268 2.07799 30.93038 -9.30344 1.18360 -21.97347 -2.19175 0.07782 15.95810 -4.79718 1.05726 2.78459 28.16474 44.49445 -3.94030 -9.10728 5.44455 -30.43037 44.25828 -26.41098 -54.94860 -36.28971 -43.46522 -2.09369 18.78405 -17.38440 -22.58710 -25.07383 10.46671 -30.75512
-69.79257 -13.01408 0.13880 18.98854 80.43929 30.77255 14.28566 -6.93376 -51.04742 -9.44433 -10.81420 66.48703 -1.44832 25.32892 -3.35032 10.37850 3.50471 -52.40476 3.96267 -9.53932 67.22609 11.69779 -26.02224 -4.81071 -5.00348 1.11959 36.20958 -5.18886 0.99642 -16.29579 1.04673 -1.73882 17.18270 -8.16476 0.82699 -1.90017 30.53993 53.10648 7.32295 -31.90849 14.54175 -20.03688 38.64016 -33.68656 -35.79707 -35.98315 -47.10919 6.43235 32.22884 -17.68205 -21.75838 -23.93493 7.13330 -22.63278
-76.79225 -20.42266 0.17039 19.44790 78.66322 32.83533 14.27130 -6.11393 -54.35400 -9.40461 -6.69422 68.49700 -0.05867 22.83954 -5.58699 7.74026 3.47649 -58.07340 3.54375 -10.12697 70.92243 12.53332 -24.03130 -6.44559 -3.88928 -0.16599 42.20206 -7.21352 2.15732 -16.49603 -0.28667 -1.39166 14.76295 -9.54390 -2.73213 -12.42504 13.92505 49.23325 1.68721 -36.43594 16.48765 -16.41367 41.43712 -39.98656 -33.53151 -21.23222 -43.82938 2.16128 36.27197 -24.29372 -20.50582 -18.66610 3.22229 -20.09929
-81.68770 -28.28710 0.19177 20.00032 77.70333 34.88404 15.36613 -4.86376 -59.34184 -10.21939 -2.78024 73.20898 1.84568 20.78522 -6.45987 5.20570 3.26301 -62.85477 2.32432 -11.21737 76.12072 11.88618 -19.20970 -7.58626 -3.85503 0.67670 45.63495 -4.34502 1.62849 -12.73428 0.13313 -1.04687 12.09703 -15.55911 -5.28604 -20.15005 4.27708 37.02238 2.10565 -45.29953 15.66530 -6.45869 25.27082 -51.11825 -12.08282 -4.10361 -32.31602 2.44599 52.12052 -26.62298 -13.05745 -13.54306 4.47831 -6.44150
-86.24861 -34.58465 0.25206 9.86300 76.25756 23.66623 17.51246 -3.55202 -63.11975 -7.12348 -1.30564 78.16364 2.57702 19.75411 -9.37659 2.31170 3.84163 -67.73829 -0.20845 -12.16397 81.42268 12.25049 -16.94695 -7.81630 -5.16045 2.55413 47.04161 -1.51294 0.56454 -11.88988 1.51512 -1.16424 9.44946 -16.71092 -0.10864 -26.46784 1.12454 22.55571 3.05139 -53.23550 8.90212 1.88436 8.89717 -52.55390 10.63419 3.13156 -20.40264 2.52993 65.54487 -16.42231 -6.26897 -22.34979 12.29117 -9.78606
